<svg width="105" height="47" viewBox="0 0 105 47" fill="none" xmlns="http://www.w3.org/2000/svg">
<path d="M23.2798 0.806332C22.9605 0.828337 22.806 0.859143 22.6721 0.92956C22.497 1.02198 22.0849 1.132 21.7519 1.18042C21.6592 1.19362 21.4017 1.28164 21.1853 1.37846C20.969 1.47088 20.6669 1.58091 20.5158 1.62052C20.3647 1.66012 20.1037 1.75255 19.9321 1.81856C19.7638 1.88898 19.4994 1.977 19.3518 2.01661C19.2007 2.05621 18.9844 2.13543 18.8711 2.19265C18.7543 2.24986 18.562 2.32908 18.4384 2.36869C18.3148 2.40829 18.1294 2.48751 18.0264 2.54473C17.6144 2.77358 16.6907 3.24448 16.4298 3.35891C16.1379 3.49094 15.5267 3.82542 15.2967 3.97945C15.2211 4.03226 15.0426 4.12908 14.9018 4.2039C14.761 4.27432 14.5585 4.38874 14.4554 4.45476C14.3524 4.52517 14.1052 4.67041 13.9061 4.78043C13.5284 4.99168 12.5532 5.63863 12.3953 5.77946C12.3438 5.82787 12.1584 5.9511 11.9798 6.05672C11.8013 6.16234 11.5197 6.35599 11.348 6.48362C11.1798 6.61125 10.8089 6.88411 10.524 7.08655C10.2424 7.2934 9.96427 7.50465 9.9059 7.55746C9.85096 7.61467 9.68615 7.7423 9.54537 7.84353C8.92732 8.29243 8.77281 8.41125 8.49812 8.66211C8.2303 8.90417 8.21313 8.92617 8.29897 8.93937C8.35391 8.94377 8.51872 8.88656 8.6698 8.81174C8.82088 8.73693 9.41489 8.47287 9.99174 8.22201C11.3515 7.62788 11.8528 7.39902 12.0862 7.26259C12.1893 7.20538 12.385 7.11296 12.5155 7.06015C13.0957 6.8357 13.3223 6.74328 13.597 6.62005C13.8786 6.49682 14.6031 6.12714 14.8846 5.9599C14.9602 5.91589 15.1525 5.83667 15.3138 5.77946C15.4752 5.72665 15.6847 5.63422 15.7774 5.57701C15.8735 5.5198 16.0589 5.44498 16.1894 5.40537C16.3233 5.36576 16.4881 5.30855 16.5603 5.27334C16.6289 5.23814 16.8418 5.15892 17.0307 5.1017C17.2195 5.04449 17.4702 4.93447 17.5869 4.85965C17.7071 4.78923 17.92 4.69681 18.0607 4.6572C18.2015 4.622 18.435 4.53838 18.5758 4.48116C18.7166 4.41955 18.9947 4.32273 19.1938 4.26552C19.393 4.2083 19.6711 4.10268 19.8119 4.03666C20.0351 3.93104 20.1209 3.91343 20.4643 3.91343C20.9484 3.90903 21.072 3.97505 21.1476 4.28312C21.1922 4.46356 21.1888 4.51197 21.0995 4.98288C21.048 5.26454 20.9484 5.77066 20.8763 6.10953C20.8076 6.44841 20.6909 7.04254 20.6222 7.42983C20.5501 7.81712 20.4574 8.30123 20.4128 8.50808C20.3647 8.71492 20.3029 9.0582 20.272 9.27825C20.2411 9.4939 20.1793 9.86358 20.1346 10.0924C20.0522 10.5281 19.9355 11.2763 19.8943 11.6548C19.8806 11.7736 19.8428 11.9717 19.8085 12.0949C19.726 12.3942 19.5029 13.4944 19.5029 13.6088C19.5029 13.7673 19.6368 13.7101 20.0179 13.3888C20.2033 13.2303 20.5467 13.0147 20.7664 12.9135C20.8248 12.8871 20.9175 12.8475 20.9724 12.8211C21.175 12.733 21.4188 12.6362 21.666 12.5526C21.824 12.4998 21.9545 12.425 22.006 12.3633C22.0884 12.2577 22.1158 12.0949 22.2635 10.9066C22.315 10.5017 22.4043 9.97361 22.5244 9.38828C22.5622 9.20783 22.624 8.82055 22.6618 8.53008C22.7785 7.68509 22.9639 7.36822 23.3554 7.36382C23.6575 7.36382 24.6086 7.83032 24.6876 8.01957C24.7735 8.22641 24.6773 8.91297 24.4301 9.9164C24.2584 10.5941 24.1863 10.9066 23.9975 11.7868C23.9563 11.9805 23.9151 12.1609 23.9082 12.1917C23.8842 12.2709 24.0593 12.3678 24.3614 12.4426C24.8387 12.557 25.0585 12.6318 25.6147 12.8607C26.1263 13.0763 26.0851 13.0675 26.1984 12.9311C26.3426 12.755 26.5761 12.7418 27.1152 12.8783C27.5753 12.9927 27.8809 13.1819 27.9702 13.402C28.0285 13.5472 28.032 13.8377 27.977 14.2118L27.9393 14.489L28.7015 15.4573C29.1204 15.9942 29.4775 16.4299 29.4913 16.4299C29.5462 16.4299 29.5908 16.3198 29.7488 15.7917C29.838 15.5057 29.9205 15.246 29.9376 15.2196C29.9514 15.1976 30.0132 15.0083 30.075 14.8015C30.2054 14.3702 30.8887 12.6054 31.1119 12.1169C31.4415 11.3995 31.4518 11.2279 31.1703 11.1795C30.9093 11.1355 28.8389 11.1487 28.4131 11.1971C28.1865 11.2191 27.7847 11.2455 27.5204 11.2499C27.074 11.2543 27.0293 11.2499 26.892 11.1531C26.686 11.0078 26.6448 10.911 26.6448 10.5941C26.6448 10.2861 26.7375 9.82838 26.9847 8.94818C27.0774 8.6225 27.1598 8.31443 27.1701 8.26602C27.1804 8.21761 27.2285 8.01076 27.28 7.80392C27.3281 7.59707 27.3899 7.311 27.4173 7.16577C27.4414 7.02054 27.5101 6.75648 27.5684 6.57604C27.6886 6.21076 27.7092 5.86308 27.6234 5.70464C27.5925 5.64743 27.5135 5.59462 27.4448 5.57701C27.1839 5.5154 25.4945 5.76185 24.8353 5.9599C24.461 6.06992 23.6232 6.12274 23.4447 6.04792C23.3725 6.01711 23.3073 5.9511 23.2833 5.88508C23.218 5.70024 23.2386 5.00048 23.3176 4.70121C23.3554 4.55598 23.4172 4.27872 23.4515 4.08507C23.4859 3.89143 23.5854 3.39412 23.6747 2.98483C23.843 2.19705 24.0352 1.15841 24.0352 1.03078C24.0352 0.898752 23.9528 0.806332 23.8292 0.793128C23.764 0.784327 23.5168 0.793128 23.2798 0.806332Z" fill="white"/>
<path d="M11.5023 17.7281C11.3993 17.7589 11.2379 17.7897 11.1486 17.7897C11.0593 17.7941 10.9323 17.8205 10.8671 17.8557C10.8018 17.8909 10.6782 17.935 10.5924 17.9482C10.5065 17.9658 10.4276 17.9966 10.4173 18.0186C10.4104 18.0406 10.3348 18.0802 10.2559 18.1066C10.1769 18.133 10.0945 18.1726 10.0739 18.1946C10.0533 18.2166 9.94684 18.2958 9.83354 18.3707C9.4215 18.6523 8.9511 19.1936 8.69357 19.6866C8.54593 19.9682 8.49099 20.0782 8.46009 20.1707C8.44979 20.2059 8.41202 20.3159 8.37768 20.4127C8.29184 20.6636 8.20257 21.0069 8.1854 21.1609C8.1751 21.2313 8.1442 21.4778 8.11673 21.6978C8.07896 21.9707 8.06866 22.2567 8.07896 22.556C8.09956 23.0357 8.1751 23.6122 8.23004 23.7003C8.25064 23.7311 8.27467 23.8147 8.28841 23.8851C8.32961 24.1052 8.56653 24.5761 8.83092 24.9678C9.05754 25.3022 9.71679 26.0064 9.90564 26.1164C9.94341 26.1384 10.0361 26.2044 10.1117 26.2616C10.2559 26.3761 10.5306 26.5521 10.7743 26.6885C10.8533 26.737 10.9872 26.8118 11.0696 26.8602C11.152 26.9086 11.2482 26.9482 11.2825 26.9482C11.3203 26.9482 11.3787 26.9746 11.4164 27.0098C11.4542 27.0406 11.54 27.0846 11.6053 27.1022C11.6705 27.1198 11.7564 27.1638 11.7941 27.1947C11.8319 27.2299 11.9006 27.2563 11.9486 27.2563C11.9967 27.2563 12.0929 27.2959 12.165 27.3443C12.2336 27.3927 12.3332 27.4323 12.3881 27.4323C12.4397 27.4323 12.5152 27.4587 12.553 27.4939C12.5907 27.5291 12.6834 27.5731 12.759 27.5907C12.8311 27.6039 12.9341 27.648 12.9856 27.6788C13.0371 27.714 13.1092 27.7404 13.147 27.7404C13.2569 27.7404 13.8406 28.0837 14.1118 28.3081C14.3522 28.5062 14.6852 28.9551 14.7127 29.1091C14.7264 29.1751 14.7573 29.2543 14.7848 29.2851C14.8226 29.3247 14.8329 29.4568 14.8329 29.8397C14.8329 30.4162 14.7779 30.6406 14.5548 31.0103C14.3831 31.292 14.232 31.4416 13.9298 31.6265C13.4148 31.9433 13.2775 31.9741 12.5461 31.9609C12.0894 31.9477 11.8731 31.9257 11.8388 31.8905C11.8113 31.8597 11.7117 31.8201 11.619 31.8069C11.5263 31.7893 11.4199 31.7541 11.3821 31.7233C11.3443 31.6925 11.2654 31.6573 11.207 31.6397C10.9769 31.5736 10.4207 31.1732 10.0533 30.8079C9.95028 30.7023 9.86444 30.6494 9.82667 30.6626C9.79577 30.6802 9.47644 31.0631 9.11934 31.5208L8.47039 32.3526L8.594 32.5111C8.66267 32.5991 8.72791 32.6695 8.74165 32.6695C8.75538 32.6695 8.84465 32.7355 8.94079 32.8191C9.03694 32.8983 9.20862 33.0304 9.31849 33.1052C9.4318 33.18 9.53824 33.2592 9.55885 33.2812C9.57945 33.3032 9.63439 33.334 9.68246 33.3517C9.73053 33.3693 9.79233 33.4089 9.8198 33.4397C9.84727 33.4705 9.91938 33.5101 9.98118 33.5277C10.0396 33.5409 10.1082 33.5849 10.1323 33.6201C10.1529 33.6553 10.2009 33.6817 10.2387 33.6817C10.273 33.6817 10.3623 33.7213 10.4379 33.7697C10.5134 33.8182 10.6095 33.8578 10.6507 33.8578C10.6954 33.8578 10.764 33.8842 10.8018 33.9194C10.843 33.9546 10.9563 33.9986 11.0593 34.0162C11.1623 34.0338 11.2757 34.0646 11.3134 34.091C11.3787 34.1394 11.6911 34.1878 12.5598 34.2979C12.9547 34.3507 12.9856 34.3463 13.8886 34.1966C14.0603 34.1658 14.2286 34.1218 14.2663 34.0954C14.3041 34.0646 14.4002 34.0294 14.4792 34.0118C14.5582 33.9986 14.6406 33.9546 14.6646 33.9194C14.6852 33.8842 14.747 33.8578 14.802 33.8578C14.8535 33.8578 14.9084 33.8358 14.9222 33.8094C14.9325 33.7829 14.9943 33.7301 15.0526 33.6949C15.2827 33.5585 15.3754 33.4837 15.6089 33.246C15.9351 32.9116 16.3437 32.3086 16.4467 32.0005C16.4673 31.9433 16.4948 31.8685 16.5119 31.8333C16.5806 31.6793 16.687 31.3404 16.687 31.27C16.6905 31.2304 16.7179 31.1159 16.7557 31.0191C16.7935 30.9223 16.8244 30.7551 16.8244 30.645C16.8244 30.535 16.8484 30.3282 16.8759 30.1829C16.9411 29.8353 16.9411 29.2191 16.8759 28.9463C16.8484 28.8274 16.8244 28.6734 16.8244 28.6074C16.8244 28.5414 16.7935 28.4093 16.7557 28.3125C16.7179 28.2157 16.687 28.1233 16.687 28.1013C16.687 28.0661 16.6046 27.8724 16.4707 27.5863C16.299 27.2211 15.8046 26.5697 15.4715 26.2704C15.1488 25.98 14.8913 25.7643 14.7814 25.6895C14.7264 25.6543 14.5342 25.5267 14.3556 25.4079C14.1805 25.2846 14.0157 25.1878 13.9916 25.1878C13.9676 25.1878 13.9298 25.157 13.9058 25.1218C13.8818 25.0866 13.8371 25.0558 13.8062 25.0558C13.7753 25.0558 13.6929 25.0162 13.6208 24.9678C13.5521 24.9193 13.4732 24.8797 13.4491 24.8797C13.4251 24.8797 13.3496 24.8401 13.2775 24.7917C13.2088 24.7433 13.1092 24.7037 13.0543 24.7037C13.0028 24.7037 12.9307 24.6773 12.8929 24.6421C12.8551 24.6113 12.7555 24.5717 12.6731 24.5541C12.5873 24.5365 12.4706 24.4968 12.4156 24.466C12.3572 24.4308 12.2439 24.3912 12.1684 24.378C12.0894 24.3648 11.983 24.3208 11.928 24.2856C11.8731 24.2504 11.801 24.2196 11.7667 24.2196C11.7358 24.2196 11.6499 24.18 11.5812 24.1316C11.5091 24.0832 11.4336 24.0435 11.413 24.0435C11.3924 24.0435 11.2585 23.9687 11.1211 23.8719C10.8739 23.7091 10.6919 23.533 10.51 23.2822C10.3348 23.0401 10.3108 23.0005 10.2318 22.7937C10.1254 22.5076 10.1151 21.733 10.2147 21.4382C10.2868 21.2313 10.4928 20.8528 10.5958 20.7384C10.7297 20.5932 11.0113 20.3555 11.0937 20.3247C11.1383 20.3071 11.207 20.2631 11.2448 20.2323C11.2825 20.1971 11.3512 20.1707 11.3993 20.1707C11.4473 20.1707 11.5332 20.1355 11.5881 20.0958C11.7426 19.9814 12.9616 19.9814 13.1779 20.0914C13.2569 20.1355 13.3599 20.1707 13.4011 20.1707C13.4423 20.1707 13.535 20.2103 13.6071 20.2587C13.6758 20.3071 13.7616 20.3467 13.7994 20.3467C13.8337 20.3467 13.8818 20.3731 13.9024 20.4083C13.9264 20.4435 13.9813 20.4831 14.026 20.4963C14.129 20.5315 14.4964 20.8572 14.723 21.1169C14.8157 21.2269 14.9084 21.3149 14.9256 21.3149C14.9805 21.3149 16.3093 19.5721 16.3093 19.5017C16.3093 19.4621 16.2269 19.3477 16.1308 19.2509C16.0312 19.154 15.9282 19.0528 15.9076 19.0264C15.8836 19 15.8286 18.9604 15.7874 18.934C15.7428 18.912 15.6466 18.8416 15.5711 18.7843C15.4475 18.6919 15.2827 18.5863 14.9531 18.3883C14.8294 18.3134 14.5891 18.199 14.4037 18.1286C14.3281 18.1022 14.2354 18.0582 14.1977 18.0318C14.1599 18.001 14.0535 17.9658 13.9573 17.9482C13.8646 17.9306 13.7685 17.8997 13.7444 17.8733C13.7204 17.8513 13.5315 17.8117 13.3255 17.7897C13.1195 17.7677 12.8826 17.7325 12.8002 17.7061C12.5976 17.6489 11.7323 17.6621 11.5023 17.7281Z" fill="white"/>
<path d="M23.9837 17.7104C23.8909 17.728 23.6609 17.7632 23.4755 17.7896C23.2901 17.8116 23.1184 17.8512 23.0978 17.8776C23.0737 17.8996 22.9707 17.9392 22.8677 17.9656C22.6583 18.0141 22.284 18.1725 22.2359 18.2385C22.2153 18.2605 22.1741 18.2781 22.1432 18.2781C22.1123 18.2781 21.9784 18.3485 21.8514 18.4322C21.7209 18.5158 21.5767 18.6038 21.5286 18.6302C21.4256 18.6874 21.0754 18.9647 20.732 19.2683C20.4367 19.528 19.6848 20.4566 19.4753 20.8175C19.1388 21.3984 19.0564 21.5525 19.0564 21.5833C19.0564 21.6053 19.0152 21.6933 18.9671 21.7857C18.8641 21.9838 18.5414 22.8243 18.5414 22.8992C18.5414 22.93 18.5208 23.0048 18.4933 23.0664C18.4143 23.2688 18.3319 23.6165 18.301 23.8586C18.2839 23.9862 18.2564 24.1182 18.2358 24.149C18.2152 24.1799 18.1808 24.4043 18.1637 24.642C18.1465 24.884 18.1156 25.1833 18.095 25.3153C18.0504 25.619 18.0504 26.3231 18.095 26.662C18.1156 26.8073 18.1465 27.1065 18.1637 27.3222C18.1808 27.5422 18.2186 27.7931 18.2495 27.8811C18.277 27.9735 18.301 28.1099 18.301 28.1892C18.301 28.2728 18.3216 28.374 18.3491 28.4224C18.3731 28.4708 18.4075 28.5809 18.4212 28.6645C18.4349 28.7481 18.4658 28.8625 18.4933 28.9153C18.5208 28.9681 18.5414 29.043 18.5414 29.0782C18.5414 29.1134 18.6032 29.2982 18.6753 29.4875C18.7508 29.6767 18.8195 29.8615 18.8332 29.8968C18.8435 29.932 18.8916 30.042 18.9362 30.1388C18.9843 30.2356 19.0392 30.3633 19.0633 30.4249C19.0873 30.4865 19.1182 30.5525 19.132 30.5789C19.726 31.5735 20.2376 32.2601 20.6359 32.6034C20.7217 32.6738 20.7973 32.7486 20.8076 32.7662C20.8385 32.819 21.0822 33.0215 21.1166 33.0215C21.1338 33.0215 21.1681 33.0523 21.1956 33.0875C21.2608 33.1711 22.0265 33.6816 22.0849 33.6816C22.1123 33.6816 22.1879 33.7212 22.26 33.7696C22.3287 33.818 22.4214 33.8577 22.4626 33.8577C22.5072 33.8577 22.569 33.8885 22.6068 33.9237C22.6411 33.9545 22.7579 33.9985 22.8643 34.0161C22.9707 34.0293 23.0772 34.0645 23.1012 34.0909C23.1253 34.1173 23.3107 34.1613 23.5132 34.1921C24.4712 34.3418 24.5502 34.3462 24.8867 34.2933C25.0721 34.2669 25.3811 34.2229 25.5803 34.1921C25.7794 34.1613 25.9717 34.1173 26.0095 34.0909C26.0473 34.0645 26.1537 34.0293 26.2498 34.0117C26.3426 33.9941 26.449 33.9545 26.4868 33.9193C26.5245 33.8841 26.5932 33.8577 26.6344 33.8577C26.679 33.8577 26.7718 33.818 26.8404 33.7696C26.9125 33.7212 26.9949 33.6816 27.0258 33.6816C27.0567 33.6816 27.1014 33.6508 27.1254 33.6156C27.1495 33.5804 27.1941 33.5496 27.225 33.5452C27.2559 33.5452 27.3726 33.4748 27.4859 33.3955C27.5993 33.3119 27.7332 33.2239 27.7881 33.1931C27.8396 33.1667 27.8808 33.1271 27.8808 33.1095C27.8808 33.0875 27.9151 33.0567 27.9564 33.0391C28.0456 33.0039 28.1452 32.9158 28.4817 32.5858C28.9178 32.1501 29.3916 31.5471 29.6594 31.0806C29.9444 30.5921 30.044 30.4073 30.044 30.3765C30.044 30.3545 30.0818 30.2664 30.1298 30.1784C30.2363 29.976 30.5041 29.2762 30.559 29.0518C30.5796 28.9593 30.614 28.8757 30.6311 28.8625C30.6483 28.8449 30.662 28.7921 30.662 28.7393C30.6655 28.6865 30.6929 28.5633 30.7307 28.4664C30.7685 28.3696 30.796 28.2244 30.7994 28.1452C30.7994 28.0615 30.8234 27.9339 30.8509 27.8591C30.8784 27.7799 30.9161 27.551 30.9333 27.3442C30.9505 27.1373 30.9848 26.75 31.0088 26.4772C31.0432 26.0855 31.0432 25.8918 31.0088 25.509C30.9882 25.2493 30.9539 24.8532 30.9333 24.6376C30.9161 24.4175 30.8784 24.1799 30.8509 24.1006C30.8234 24.0258 30.7994 23.907 30.7994 23.841C30.7994 23.7178 30.7032 23.3569 30.6071 23.106C30.5796 23.0356 30.559 22.9564 30.559 22.93C30.559 22.8728 30.3084 22.1774 30.25 22.063C30.2294 22.0278 30.1916 21.9353 30.1607 21.8649C29.9032 21.2268 29.632 20.7823 29.0517 20.0385C28.6671 19.55 28.3203 19.1891 28.025 18.9823C27.9735 18.9427 27.8705 18.8635 27.795 18.8018C27.5924 18.6346 27.019 18.2781 26.9537 18.2781C26.9263 18.2781 26.8713 18.2517 26.8336 18.2165C26.7958 18.1857 26.7099 18.1417 26.6447 18.1241C26.5795 18.1065 26.4936 18.0625 26.4559 18.0317C26.4181 17.9965 26.3426 17.97 26.2842 17.97C26.2292 17.9656 26.1194 17.9348 26.0438 17.8996C25.9683 17.86 25.7691 17.8116 25.5975 17.7896C25.4292 17.7676 25.2129 17.7324 25.1167 17.7104C24.9107 17.6576 24.224 17.6576 23.9837 17.7104ZM25.5288 20.4478C25.6043 20.4874 25.7142 20.5182 25.7691 20.5226C25.8275 20.5226 25.903 20.5534 25.9374 20.5886C25.9752 20.6238 26.0267 20.6547 26.0541 20.6547C26.1022 20.6547 26.2327 20.7251 26.576 20.9363C26.9022 21.1344 27.3898 21.6097 27.7469 22.0806C27.898 22.2742 28.0182 22.4459 28.0182 22.4635C28.0182 22.4811 28.0868 22.6087 28.1727 22.7495C28.2585 22.886 28.3272 23.0268 28.3272 23.062C28.3272 23.0928 28.3409 23.1192 28.3581 23.1192C28.3753 23.1192 28.4062 23.172 28.4268 23.238C28.4474 23.3085 28.4783 23.3921 28.4954 23.4273C28.571 23.5813 28.6637 23.8586 28.6877 23.9994C28.7014 24.083 28.7358 24.1931 28.7598 24.2415C28.7873 24.2899 28.8079 24.3823 28.8079 24.4527C28.8079 24.5187 28.8354 24.6464 28.8663 24.7388C28.9384 24.95 28.9761 26.6444 28.9109 26.9789C28.8903 27.0933 28.856 27.287 28.8354 27.4102C28.8148 27.529 28.7804 27.6786 28.7564 27.7403C28.7323 27.8019 28.7049 27.9075 28.6911 27.9823C28.6705 28.0967 28.5092 28.528 28.3203 28.9769C28.2894 29.0562 28.2173 29.1882 28.1624 29.2762C28.1074 29.3642 28.0456 29.4743 28.0285 29.5227C27.9701 29.6591 27.3692 30.4029 27.1769 30.5745C26.813 30.9002 26.2155 31.3051 26.0988 31.3051C26.0679 31.3051 26.0095 31.3359 25.9683 31.3711C25.9305 31.4063 25.8309 31.4459 25.7485 31.4635C25.6661 31.4767 25.5288 31.5207 25.4429 31.5603C25.3159 31.6219 25.1511 31.6351 24.5502 31.6351C23.9493 31.6351 23.7845 31.6219 23.6575 31.5603C23.5716 31.5207 23.4343 31.4767 23.3519 31.4635C23.2695 31.4459 23.1699 31.4063 23.1321 31.3711C23.0909 31.3359 23.0257 31.3051 22.9879 31.3051C22.9501 31.3051 22.8746 31.2655 22.8162 31.2171C22.7613 31.1686 22.6892 31.129 22.6617 31.129C22.6308 31.129 22.5278 31.0586 22.4248 30.975C22.3252 30.8914 22.2291 30.821 22.2153 30.821C22.1741 30.821 21.6831 30.3236 21.484 30.0772C21.3226 29.8791 20.9724 29.3466 20.8865 29.1706C20.6908 28.7613 20.5329 28.396 20.5329 28.3564C20.5329 28.3256 20.5088 28.2508 20.4814 28.1892C20.4093 28.0219 20.3269 27.7095 20.2925 27.4762C20.2753 27.3662 20.2376 27.1989 20.2067 27.1065C20.1586 26.9569 20.1517 26.7896 20.162 25.9138C20.1689 25.2009 20.1861 24.8752 20.2135 24.8312C20.2376 24.796 20.2685 24.6596 20.2891 24.5275C20.3646 23.9554 20.6633 23.1896 21.0685 22.5251C21.3707 22.0234 21.9269 21.372 22.2634 21.1344C22.5038 20.9583 23.0016 20.6547 23.0463 20.6547C23.0703 20.6547 23.1218 20.6283 23.1596 20.593C23.1974 20.5622 23.3072 20.5182 23.3999 20.5006C23.4961 20.483 23.6025 20.4478 23.6403 20.4214C23.812 20.2982 25.2713 20.3202 25.5288 20.4478Z" fill="white"/>
<path d="M54.8353 17.7281C54.7323 17.7589 54.5778 17.7897 54.492 17.7897C54.4061 17.7941 54.2482 17.8337 54.1383 17.8821C54.0319 17.9305 53.9151 17.9701 53.8808 17.9701C53.8465 17.9701 53.7881 18.0009 53.7503 18.0361C53.716 18.0713 53.6645 18.1021 53.6404 18.1021C53.5821 18.1021 52.9846 18.4762 52.9468 18.5378C52.9365 18.551 52.8644 18.6215 52.7889 18.6875C52.6413 18.8151 52.1777 19.4136 52.0884 19.5941C52.061 19.6513 52.0095 19.7437 51.9786 19.7965C51.9442 19.8493 51.903 19.9418 51.8824 19.999C51.8653 20.0562 51.8344 20.1354 51.8172 20.1706C51.6901 20.4303 51.5047 21.1124 51.5047 21.3281C51.5013 21.4293 51.4807 21.6317 51.4532 21.777C51.388 22.1247 51.388 22.7804 51.4532 23.0577C51.4807 23.1765 51.5047 23.3305 51.5047 23.3965C51.5047 23.5286 51.5425 23.6474 51.7245 24.1227C51.8893 24.554 51.8996 24.576 52.1296 24.9061C52.3872 25.2758 52.7202 25.6631 52.94 25.8435C53.0293 25.9183 53.1185 25.9931 53.1357 26.0107C53.2833 26.1648 54.2036 26.7721 54.2825 26.7721C54.3031 26.7721 54.3615 26.8029 54.4061 26.8425C54.4542 26.8821 54.54 26.9305 54.6019 26.9481C54.7735 27.0054 55.0139 27.1198 55.1169 27.1902C55.165 27.2254 55.2508 27.2562 55.3057 27.2562C55.3572 27.2562 55.45 27.2958 55.5049 27.3442C55.5633 27.3926 55.6491 27.4323 55.6972 27.4323C55.7487 27.4323 55.8551 27.4719 55.9375 27.5203C56.0199 27.5687 56.1298 27.6083 56.1779 27.6083C56.226 27.6083 56.2946 27.6391 56.3324 27.6743C56.3667 27.7095 56.4354 27.7403 56.48 27.7403C56.5247 27.7403 56.6346 27.7799 56.7204 27.8327C56.8062 27.8856 56.947 27.9648 57.0329 28.0176C57.1187 28.066 57.2114 28.1232 57.2389 28.1452C57.2663 28.1628 57.3453 28.2112 57.4106 28.2508C57.5822 28.3521 57.9668 28.8714 58.0801 29.1486C58.1694 29.3731 58.1762 29.4303 58.1762 29.8968C58.1762 30.3985 58.1762 30.4073 58.0492 30.711C57.9256 31.0059 57.6475 31.3976 57.4964 31.4856C57.4586 31.5076 57.4037 31.5428 57.3762 31.5648C57.2492 31.666 57.026 31.7892 56.971 31.7892C56.9401 31.7892 56.868 31.8244 56.8097 31.8685C56.7204 31.9345 56.6071 31.9433 55.965 31.9433C55.4362 31.9433 55.2096 31.9301 55.1753 31.8905C55.1478 31.8597 55.0551 31.8244 54.9727 31.8068C54.8868 31.7936 54.7735 31.754 54.7152 31.7232C54.6602 31.6968 54.5194 31.6264 54.4061 31.5692C54.1692 31.4504 53.6954 31.1115 53.6336 31.0191C53.6095 30.9839 53.5718 30.9531 53.5512 30.9531C53.5306 30.9531 53.4516 30.8826 53.3795 30.799C53.3039 30.7154 53.225 30.645 53.2009 30.645C53.1769 30.645 52.861 31.0235 52.5005 31.4856C51.9992 32.1281 51.8515 32.3438 51.8653 32.4054C51.8893 32.4978 52.3391 32.8939 52.6722 33.1139C52.7958 33.1976 52.9022 33.2768 52.9125 33.2944C52.9228 33.3076 52.9709 33.334 53.0224 33.3516C53.0739 33.3692 53.1323 33.4088 53.1563 33.444C53.1769 33.4792 53.2215 33.5056 53.2524 33.5056C53.2833 33.5056 53.3658 33.5452 53.4379 33.5936C53.5065 33.6421 53.5855 33.6817 53.6095 33.6817C53.6336 33.6817 53.7091 33.7213 53.7812 33.7697C53.8499 33.8181 53.9426 33.8577 53.9872 33.8577C54.0284 33.8577 54.0971 33.8841 54.1349 33.9193C54.1761 33.9545 54.2894 33.9985 54.3924 34.0161C54.4954 34.0337 54.6156 34.069 54.6637 34.091C54.7495 34.1394 55.1341 34.201 55.9204 34.2978C56.2431 34.3374 56.4079 34.3374 56.6414 34.2978C56.8097 34.267 57.0775 34.2186 57.2389 34.1922C57.4003 34.1658 57.5616 34.1218 57.5994 34.0954C57.6372 34.069 57.7299 34.0293 57.802 34.0117C57.8775 33.9985 57.9702 33.9545 58.008 33.9193C58.0458 33.8841 58.111 33.8577 58.1488 33.8577C58.1865 33.8577 58.2552 33.8181 58.3033 33.7697C58.3514 33.7213 58.4097 33.6817 58.4338 33.6817C58.5093 33.6817 59.0209 33.1976 59.251 32.9115C59.4948 32.6034 59.7694 32.0973 59.8828 31.7452C59.9034 31.6836 59.9411 31.5736 59.9686 31.5032C60.2124 30.8298 60.3188 29.4171 60.1815 28.6645C60.1471 28.4841 60.1059 28.3169 60.0922 28.2904C60.075 28.2684 60.051 28.1804 60.0373 28.1056C60.027 28.0264 59.9995 27.9516 59.9823 27.934C59.9652 27.9208 59.9274 27.8459 59.8999 27.7711C59.7385 27.3222 59.3162 26.7589 58.6638 26.1208C58.5677 26.0283 58.2072 25.7291 58.1316 25.6851C58.0835 25.6543 58.0183 25.6102 57.9874 25.5838C57.8329 25.4738 57.7986 25.4474 57.7196 25.399C57.6715 25.3726 57.517 25.2802 57.3762 25.1965C57.2354 25.1173 57.0569 25.0117 56.9779 24.9633C56.8989 24.9193 56.8165 24.8797 56.7959 24.8797C56.7753 24.8797 56.6964 24.8401 56.6208 24.7917C56.5453 24.7432 56.4423 24.7036 56.3908 24.7036C56.3358 24.7036 56.2637 24.6772 56.226 24.642C56.1882 24.6112 56.0886 24.5672 56.0028 24.5496C55.9169 24.532 55.8105 24.4924 55.7624 24.4616C55.7143 24.4308 55.6079 24.3956 55.5255 24.378C55.4431 24.3604 55.3332 24.3207 55.2783 24.2855C55.2268 24.2503 55.1478 24.2195 55.1032 24.2195C55.0585 24.2195 54.9933 24.1931 54.9555 24.1579C54.9177 24.1271 54.8491 24.0831 54.801 24.0699C54.7083 24.0347 54.4336 23.8674 54.3718 23.8102C54.3546 23.7926 54.2654 23.7178 54.1761 23.643C53.9632 23.467 53.6919 23.0841 53.5821 22.8068C53.5065 22.6088 53.4962 22.5295 53.4962 22.107C53.4962 21.6009 53.5374 21.4117 53.7331 21.0508C53.8774 20.7911 54.2894 20.3466 54.3924 20.3466C54.413 20.3466 54.4851 20.307 54.5538 20.263C54.6808 20.1794 54.8422 20.1178 55.1615 20.0298C55.4191 19.9638 56.3633 20.0078 56.5247 20.1002C56.5968 20.1398 56.6895 20.1706 56.7307 20.1706C56.7753 20.175 56.8715 20.2102 56.947 20.2586C57.0226 20.307 57.1015 20.3422 57.1256 20.3466C57.2114 20.3466 57.7814 20.7867 57.929 20.9628C58.1591 21.2356 58.2346 21.3149 58.2655 21.3149C58.2999 21.3149 59.6046 19.6381 59.6527 19.5325C59.7008 19.4224 59.1548 18.9075 58.681 18.6215C58.1865 18.3222 58.1076 18.2782 58.0629 18.2782C58.0423 18.2782 57.9805 18.2518 57.9325 18.2166C57.8157 18.1373 57.541 18.0229 57.3419 17.9657C57.256 17.9437 57.1256 17.8953 57.05 17.8645C56.9745 17.8293 56.765 17.7897 56.5865 17.7721C56.4079 17.7589 56.1985 17.7281 56.1229 17.706C55.9307 17.6488 55.062 17.662 54.8353 17.7281Z" fill="white"/>
<path d="M32.0352 25.9799V33.9897L33.0755 33.9809L34.1125 33.9677L34.1297 30.623L34.1468 27.2782L36.7049 27.2562L39.2629 27.2342L39.2526 26.9922C39.2458 26.8601 39.2183 26.7017 39.1942 26.6401C39.1702 26.5785 39.1393 26.4332 39.129 26.3188C39.1153 26.2044 39.0809 26.0415 39.0535 25.9579C39.026 25.8743 39.0054 25.7467 39.0054 25.6763C39.0054 25.6014 38.9745 25.443 38.9367 25.3198C38.899 25.1966 38.8681 25.0205 38.8681 24.9325C38.8681 24.8401 38.844 24.7212 38.8131 24.6684L38.7616 24.5716H36.4989C35.2559 24.5716 34.2155 24.5584 34.1846 24.5452C34.1365 24.5232 34.1297 24.3076 34.1297 22.6088C34.1297 21.5569 34.1331 20.6943 34.14 20.6899C34.1434 20.6811 35.5546 20.6679 37.2714 20.6547L40.396 20.6327V19.3124V17.9921L36.2173 17.9789L32.0352 17.9701V25.9799Z" fill="white"/>
<path d="M41.0487 18.0273C41.0384 18.0581 41.035 18.6567 41.0384 19.3564L41.0487 20.6327L42.8513 20.6459C44.496 20.6547 44.6574 20.6635 44.6986 20.7295C44.7295 20.7868 44.7398 22.1907 44.7398 27.3971V33.9897L45.7802 33.9809L46.8172 33.9677L46.8343 27.3222L46.8515 20.6767L48.6439 20.6635L50.4396 20.6547L50.4568 20.5535C50.4671 20.5007 50.4705 19.9022 50.4671 19.2244L50.4568 17.9921L45.7596 17.9789C41.9964 17.9701 41.059 17.9789 41.0487 18.0273Z" fill="white"/>
<path d="M60.5516 18.0273C60.5413 18.0581 60.5379 18.6567 60.5413 19.3564L60.5516 20.6327L62.3714 20.6547C63.3741 20.6679 64.1947 20.6811 64.2016 20.6899C64.205 20.6943 64.2084 23.687 64.2084 27.3442V33.9897H65.2557H66.3029V27.3706C66.3029 21.8914 66.3098 20.7471 66.3476 20.7031C66.3819 20.6723 66.9279 20.6503 68.1605 20.6459L69.9254 20.6327V19.3124V17.9921L65.2454 17.9789C61.4959 17.9701 60.5619 17.9789 60.5516 18.0273Z" fill="white"/>
<path d="M70.8942 18.001C70.8599 18.045 70.8702 27.6216 70.9045 27.9824C70.9663 28.625 71.0144 29.0035 71.059 29.2147C71.0865 29.3335 71.1243 29.5052 71.1414 29.5888C71.2101 29.8969 71.2994 30.1873 71.4093 30.4602C71.4711 30.6142 71.5226 30.7683 71.5226 30.8035C71.5226 30.8387 71.5363 30.8651 71.5569 30.8651C71.5741 30.8651 71.6153 30.9311 71.6427 31.0059C71.8076 31.468 72.3226 32.247 72.793 32.7531C72.9441 32.916 73.2188 33.18 73.2737 33.2108C73.3012 33.2284 73.387 33.29 73.4626 33.3517C73.5381 33.4133 73.648 33.4925 73.7029 33.5277C73.7613 33.5673 73.83 33.6113 73.8574 33.6289C74.0944 33.7962 74.2077 33.8578 74.2763 33.8578C74.321 33.8578 74.3828 33.8886 74.4205 33.9238C74.4549 33.959 74.5545 33.9986 74.6437 34.0162C74.7296 34.0338 74.8326 34.069 74.8703 34.0954C74.9081 34.1218 75.0798 34.1658 75.248 34.1966C76.1168 34.3463 76.182 34.3507 76.491 34.2979C76.6558 34.2671 76.934 34.2186 77.1022 34.1922C77.2739 34.1614 77.4421 34.1174 77.4799 34.091C77.5177 34.0646 77.6207 34.0294 77.7099 34.0118C77.7992 33.9942 77.8919 33.9546 77.9125 33.9194C77.9331 33.8842 77.9881 33.8578 78.0361 33.8578C78.0808 33.8578 78.1838 33.8138 78.2628 33.7609C78.3417 33.7081 78.431 33.6509 78.4585 33.6333C78.7675 33.4309 78.9495 33.2988 78.9804 33.2548C79.001 33.224 79.0319 33.1976 79.0491 33.1976C79.0765 33.1976 79.3203 32.9732 79.5504 32.7267C80.3126 31.9169 80.965 30.6406 81.1882 29.514C81.2122 29.3908 81.2431 29.2631 81.2603 29.2323C81.2878 29.1707 81.3496 28.6646 81.4114 27.9604C81.4354 27.6832 81.4457 25.9492 81.4389 22.7673L81.4286 17.9922L80.3916 17.979L79.3547 17.9702L79.3444 23.1941C79.3341 28.0749 79.3306 28.4313 79.2757 28.5634C79.2413 28.6426 79.2139 28.7482 79.2139 28.8054C79.2139 28.8626 79.1864 28.9771 79.1521 29.0607C79.1143 29.1443 79.0765 29.2675 79.0628 29.3335C79.0525 29.404 79.025 29.4568 79.0079 29.4568C78.9873 29.4568 78.9735 29.4832 78.9735 29.514C78.9735 29.7208 78.3349 30.6318 77.9743 30.9443C77.6893 31.1908 77.6584 31.2128 77.5657 31.2656C77.5177 31.292 77.4181 31.3536 77.3391 31.3976C77.2601 31.446 77.164 31.4812 77.1228 31.4812C77.0816 31.4812 77.0026 31.512 76.9443 31.5472C76.8103 31.6353 76.024 31.6837 75.6944 31.6221C75.4438 31.5736 75.0592 31.4416 74.939 31.3624C74.9013 31.3404 74.7948 31.27 74.6987 31.2128C74.5236 31.1027 74.3656 30.9795 74.2557 30.8651C74.0222 30.6186 73.6274 30.0993 73.5209 29.8969C73.3493 29.5624 73.1398 29.0299 73.1158 28.8406C73.102 28.757 73.0677 28.625 73.0368 28.5546C72.9887 28.4357 72.9819 27.912 72.9716 23.1941L72.9613 17.9702H71.938C71.3749 17.9702 70.9045 17.9834 70.8942 18.001Z" fill="white"/>
<path d="M82.568 18.0009C82.5542 18.0141 82.5439 21.6185 82.5439 26.0107V33.9897H83.5912H84.6385V27.3971C84.6385 22.1335 84.6488 20.7868 84.6831 20.7251C84.7243 20.6547 84.8513 20.6503 86.6128 20.6635C88.3227 20.6767 88.515 20.6855 88.6352 20.7515C88.7073 20.7956 88.8069 20.8308 88.8584 20.8308C88.9064 20.8352 89.0094 20.8704 89.085 20.9188C89.1605 20.9672 89.2429 21.0024 89.267 21.0068C89.3047 21.0068 89.4627 21.0992 89.6515 21.2357C89.679 21.2533 89.7374 21.2885 89.7751 21.3105C89.9537 21.4117 90.4447 21.8826 90.6885 22.1907C90.9666 22.5384 91.2482 23.0137 91.3855 23.3613C91.413 23.4318 91.4507 23.5242 91.4679 23.5594C91.5366 23.7002 91.643 24.0039 91.643 24.0567C91.6465 24.0875 91.6739 24.1887 91.7117 24.2855C91.7495 24.3824 91.7769 24.5144 91.7804 24.576C91.7804 24.642 91.8044 24.7697 91.8353 24.8621C91.9486 25.2054 91.9349 26.6533 91.8147 27.2562C91.7769 27.4455 91.7563 27.5247 91.6739 27.8372C91.6156 28.0572 91.3752 28.6557 91.2379 28.9286C90.9769 29.4435 90.5786 29.9804 90.2249 30.2973C89.9606 30.5306 89.5623 30.821 89.5039 30.821C89.4764 30.821 89.4352 30.8474 89.4146 30.8826C89.3906 30.9179 89.3185 30.9575 89.2498 30.9751C89.1811 30.9927 89.0919 31.0323 89.0541 31.0675C89.0163 31.1027 88.9408 31.1291 88.8858 31.1291C88.8343 31.1291 88.7348 31.1643 88.6627 31.2039C88.5562 31.2699 88.3777 31.2831 87.4712 31.3051L86.4068 31.3271L86.3896 31.4372C86.3759 31.4988 86.3415 31.622 86.3106 31.71C86.2797 31.8025 86.2523 31.8949 86.2523 31.9169C86.2523 31.9389 86.2282 32.0137 86.2007 32.0841C86.1389 32.2426 86.0428 32.533 85.9467 32.8675C85.9055 33.0127 85.8402 33.2108 85.8024 33.312C85.7681 33.4132 85.7372 33.51 85.7372 33.532C85.7372 33.5584 85.7063 33.6509 85.6685 33.7433C85.6342 33.8401 85.6102 33.9325 85.6205 33.9501C85.6308 33.9721 86.2042 33.9897 86.8978 33.9897C87.8798 33.9897 88.2025 33.9721 88.3639 33.9237C88.4772 33.8885 88.6661 33.8621 88.7863 33.8577C88.9099 33.8577 89.0472 33.8313 89.1022 33.7917C89.1571 33.7521 89.2773 33.7125 89.3665 33.6993C89.4592 33.6817 89.5623 33.6465 89.6 33.6157C89.6378 33.5849 89.7236 33.5452 89.7889 33.5276C89.8541 33.51 89.94 33.4704 89.9777 33.4396C90.0155 33.4088 90.0945 33.3692 90.1563 33.3516C90.2146 33.3384 90.2833 33.2944 90.3074 33.2592C90.328 33.224 90.3726 33.1976 90.4035 33.1932C90.4344 33.1932 90.5305 33.1404 90.6164 33.0743C91.2688 32.5902 91.4542 32.4318 91.7804 32.0621C92.1409 31.6528 92.5426 31.1203 92.68 30.8562C92.7281 30.7682 92.8105 30.623 92.8654 30.5262C92.9856 30.3237 93.0336 30.2269 93.1058 30.0509C93.1332 29.976 93.195 29.8396 93.2397 29.7428C93.2877 29.646 93.3392 29.5183 93.3598 29.4567C93.3804 29.3951 93.4182 29.2851 93.4422 29.2147C93.6002 28.7702 93.6345 28.6557 93.6345 28.5853C93.6345 28.5413 93.6551 28.4665 93.6826 28.4181C93.7101 28.3697 93.741 28.2332 93.7547 28.1144C93.7684 27.9912 93.7959 27.8548 93.8165 27.8063C93.8508 27.7271 93.8955 27.331 93.9779 26.3804C94.0088 26.0019 93.9916 25.6279 93.8955 24.7256C93.868 24.4836 93.8302 24.2239 93.8131 24.1535C93.7925 24.0787 93.7616 23.9335 93.7444 23.8234C93.7066 23.5946 93.6517 23.3921 93.5624 23.1369C93.5247 23.0357 93.4972 22.9388 93.4972 22.9212C93.4972 22.8904 93.2397 22.2171 93.1401 21.997C93.0611 21.8166 92.6971 21.1344 92.6113 21.0024C92.2782 20.5007 91.8799 19.9902 91.6087 19.7305C91.5606 19.6821 91.4439 19.5633 91.3443 19.4665C91.2447 19.3696 91.152 19.2904 91.1349 19.2904C91.1177 19.2904 91.0627 19.2508 91.0112 19.198C90.9117 19.0968 90.2043 18.6303 90.1494 18.6303C90.1288 18.6303 90.0567 18.5907 89.9846 18.5422C89.9159 18.4938 89.8369 18.4542 89.8095 18.4542C89.782 18.4542 89.6962 18.4146 89.6138 18.3662C89.5314 18.3178 89.418 18.2782 89.3665 18.2782C89.3116 18.2782 89.2189 18.2474 89.1605 18.2122C89.0987 18.177 88.903 18.1286 88.7245 18.1021C88.5459 18.0757 88.3056 18.0361 88.1922 18.0141C87.9519 17.9701 82.6023 17.9569 82.568 18.0009Z" fill="white"/>
<path d="M92.9854 18.0009C92.9854 18.0229 93.0472 18.155 93.1193 18.3002C93.1914 18.4454 93.3081 18.6831 93.3768 18.8283C93.5279 19.154 93.5382 19.1804 93.7648 19.6117C93.8678 19.8053 93.9639 20.0078 93.9811 20.0562C93.9983 20.109 94.0738 20.2674 94.1494 20.4127C94.2215 20.5579 94.3348 20.7868 94.3932 20.9188C94.455 21.0508 94.5168 21.1696 94.5271 21.1828C94.5477 21.2048 94.7159 21.5569 94.8361 21.8342C94.8636 21.9002 94.9082 21.9706 94.9322 21.9882C94.9528 22.0058 94.9734 22.041 94.9734 22.063C94.9734 22.085 95.0833 22.3183 95.2138 22.578C95.3477 22.842 95.4713 23.1017 95.4919 23.1633C95.5125 23.2205 95.54 23.2821 95.5537 23.2953C95.5674 23.3085 95.6258 23.4141 95.6773 23.5374C95.7323 23.6562 95.825 23.8454 95.8833 23.9555C95.9417 24.0655 96.0001 24.1843 96.0138 24.2195C96.0276 24.2547 96.0825 24.3736 96.1409 24.4836C96.1958 24.5936 96.2885 24.7785 96.3469 24.9017C96.4053 25.0205 96.5117 25.2406 96.5872 25.3858C96.6593 25.531 96.7761 25.7687 96.8448 25.9139C96.9993 26.2484 97.0267 26.3012 97.1641 26.5609C97.2225 26.6753 97.274 26.7897 97.274 26.8117C97.274 26.8337 97.2946 26.8821 97.322 26.9129C97.3461 26.9482 97.3976 27.0406 97.4319 27.1198C97.5177 27.3178 97.5383 27.3574 97.7375 27.7403L97.9092 28.0704L97.9263 31.0191L97.9435 33.9677L98.9805 33.9809L100.021 33.9897L100.028 31.0543L100.038 28.1144L100.168 27.8856C100.237 27.7579 100.296 27.6435 100.296 27.6303C100.296 27.6171 100.35 27.5071 100.416 27.3882C100.481 27.2694 100.536 27.155 100.536 27.1374C100.536 27.1198 100.574 27.0362 100.618 26.9526C100.783 26.6357 101.151 25.9007 101.202 25.7775C101.233 25.7071 101.319 25.531 101.394 25.3858C101.47 25.2406 101.552 25.0733 101.576 25.0117C101.621 24.8929 101.741 24.6508 101.772 24.6156C101.782 24.6024 101.81 24.5452 101.834 24.4836C101.858 24.422 101.937 24.2547 102.012 24.1095C102.088 23.9643 102.184 23.7706 102.225 23.6738C102.325 23.4538 102.339 23.4274 102.541 23.0313C102.706 22.7056 102.761 22.5912 103.022 22.0542C103.097 21.9002 103.207 21.6758 103.272 21.5525C103.334 21.4293 103.386 21.3149 103.386 21.2973C103.386 21.2841 103.437 21.174 103.499 21.0596C103.561 20.9452 103.657 20.7515 103.712 20.6327C103.767 20.5095 103.822 20.4039 103.832 20.3907C103.856 20.3643 103.97 20.1442 104.038 19.9858C104.103 19.8361 104.272 19.4885 104.471 19.0924C104.553 18.9207 104.636 18.7447 104.653 18.6963C104.67 18.6435 104.708 18.5775 104.739 18.5466C104.77 18.5158 104.794 18.4718 104.794 18.4498C104.794 18.4322 104.842 18.3266 104.897 18.221C104.955 18.1109 105 18.0097 105 17.9965C105 17.9613 102.685 17.9613 102.617 17.9965C102.586 18.0097 102.562 18.0449 102.562 18.0713C102.562 18.0933 102.51 18.2166 102.448 18.3398C102.249 18.7315 101.93 19.3696 101.827 19.5853C101.734 19.7789 101.542 20.1662 101.343 20.5667C101.302 20.6503 101.209 20.8396 101.137 20.9848C101.068 21.13 100.979 21.3017 100.944 21.3677C100.907 21.4337 100.879 21.4997 100.879 21.5085C100.879 21.5217 100.817 21.6493 100.742 21.7858C100.666 21.9266 100.605 22.0542 100.605 22.0762C100.605 22.0939 100.55 22.2083 100.484 22.3271C100.419 22.4459 100.364 22.5648 100.364 22.5824C100.364 22.6044 100.333 22.6572 100.296 22.7012C100.258 22.7452 100.227 22.798 100.227 22.82C100.227 22.8376 100.175 22.952 100.114 23.0665C100.052 23.1809 99.9831 23.3217 99.959 23.3833C99.9007 23.5286 99.8629 23.6078 99.6741 23.9775C99.5882 24.1447 99.4955 24.334 99.4715 24.3956C99.4474 24.4572 99.4165 24.5144 99.4028 24.5276C99.3925 24.5408 99.3341 24.6596 99.2723 24.7917C99.1453 25.0777 99.0217 25.245 98.953 25.2098C98.9049 25.1878 98.5513 24.5364 98.5032 24.3824C98.4895 24.3384 98.4517 24.2723 98.4242 24.2371C98.3967 24.1975 98.3727 24.1447 98.3727 24.1139C98.3727 24.0831 98.3418 24.0215 98.304 23.9775C98.2663 23.9335 98.2354 23.8807 98.2354 23.8587C98.2354 23.841 98.1839 23.7266 98.1255 23.6122C97.9881 23.3569 97.9607 23.2997 97.8165 22.9873C97.7581 22.8552 97.6551 22.6528 97.5933 22.5384C97.5315 22.4239 97.48 22.3183 97.48 22.3095C97.48 22.3007 97.3976 22.1335 97.3014 21.9354C97.2018 21.7418 97.0748 21.4865 97.0199 21.3721C96.9649 21.2533 96.8482 21.02 96.7623 20.8528C96.6765 20.6811 96.5838 20.4963 96.5563 20.4347C96.5323 20.3731 96.4911 20.285 96.4705 20.2366C96.4499 20.1882 96.3812 20.0562 96.3194 19.9418C96.261 19.8273 96.2095 19.7173 96.2095 19.6953C96.2095 19.6733 96.1786 19.6205 96.1409 19.5765C96.1031 19.5325 96.0722 19.4709 96.0722 19.44C96.0722 19.4092 96.0516 19.3564 96.0276 19.3256C95.976 19.2552 95.7975 18.9031 95.7975 18.8723C95.7975 18.8591 95.7426 18.7491 95.6773 18.6303C95.6121 18.5114 95.5571 18.4014 95.5571 18.3926C95.5571 18.3794 95.5091 18.2826 95.4507 18.1726L95.3477 17.9701H94.1631C93.5141 17.9701 92.9819 17.9833 92.9854 18.0009Z" fill="white"/>
<path d="M16.8828 34.2846C16.8691 34.2978 16.8588 34.3815 16.8588 34.4651C16.8588 34.5487 16.8348 34.7335 16.8073 34.8788C16.7764 35.024 16.7455 35.3629 16.7386 35.6313C16.7249 36.1639 16.694 36.4103 16.5635 36.9648C16.4227 37.5634 16.3129 37.647 15.3892 37.8186C15.0184 37.889 14.5652 37.9947 14.3866 38.0563C14.2081 38.1179 13.8819 38.1971 13.6655 38.2367C13.178 38.3203 13.0132 38.3688 12.6183 38.5316C12.45 38.5976 12.2097 38.6768 12.0861 38.6988C11.9625 38.7208 11.7393 38.7913 11.5882 38.8573C11.4371 38.9189 11.1281 39.0157 10.9015 39.0729C10.3658 39.2049 9.55894 39.5042 9.33576 39.6494C9.23962 39.7111 9.05077 39.7991 8.91686 39.8431C8.68337 39.9179 8.1958 40.1512 7.75629 40.3976C7.64985 40.4548 7.55028 40.5032 7.53654 40.5032C7.52281 40.5032 7.38546 40.5825 7.23438 40.6749C6.93566 40.8597 6.64037 41.027 6.19743 41.247C5.92274 41.3878 5.17765 41.8764 5.08151 41.9776C5.05404 42.0084 4.83085 42.1624 4.5905 42.3209C4.35015 42.4793 4.07202 42.6861 3.97245 42.783C3.79047 42.9546 3.46427 43.2231 3.23422 43.3859C2.90116 43.6191 2.64021 43.87 2.18353 44.3981C2.16293 44.4201 2.08396 44.4993 2.00842 44.5742C1.83674 44.737 1.37663 45.2959 1.33543 45.3971C1.31826 45.4368 1.31483 45.5028 1.32513 45.5424C1.35603 45.6392 1.59982 45.604 1.89854 45.4588C2.1904 45.3179 2.54063 45.2211 3.03507 45.1419C3.72866 45.0319 3.87974 45.0055 4.29178 44.9086C5.39053 44.6622 6.10472 44.605 8.41212 44.5742C10.6646 44.5434 10.5993 44.5434 10.9702 44.6182C11.1418 44.6534 11.5161 44.6842 11.8114 44.6842C12.1548 44.6842 12.4294 44.7106 12.584 44.7502C12.7179 44.7898 13.1024 44.8382 13.4424 44.8602C13.7823 44.8866 14.184 44.9306 14.3351 44.9703C14.4862 45.0055 14.7506 45.0319 14.9257 45.0363C15.1008 45.0363 15.4167 45.0627 15.6296 45.0979C15.8425 45.1331 16.1343 45.1771 16.2751 45.1903C16.4159 45.2079 16.6116 45.2475 16.7043 45.2827C16.8004 45.3135 17.0374 45.3619 17.2365 45.3883C17.4357 45.4104 17.6348 45.4412 17.6829 45.45C17.731 45.4588 17.8855 45.4808 18.0262 45.4984C18.167 45.5116 18.4074 45.56 18.5585 45.6084C18.8228 45.6876 18.9533 45.714 19.3138 45.7624C19.41 45.7756 19.5714 45.8152 19.6744 45.8505C19.7774 45.8857 19.9079 45.9165 19.9628 45.9165C20.0177 45.9165 20.1173 45.9341 20.186 45.9605C20.2547 45.9825 20.4641 46.0441 20.653 46.0925C21.2676 46.2553 21.6109 46.3654 21.8719 46.4798C22.0127 46.537 22.2221 46.6162 22.3354 46.6514C22.6136 46.7306 22.6067 46.7306 22.6445 46.7571C22.72 46.8143 23.2797 46.9771 23.3518 46.9639C23.5269 46.9331 23.6333 46.5458 23.7089 45.6744C23.86 43.9844 23.8943 43.6852 24.0179 42.9238C24.066 42.6201 24.1209 42.1712 24.1346 41.9248C24.1518 41.6783 24.2033 41.2646 24.2514 41.0006C24.2995 40.7409 24.3613 40.3932 24.3887 40.2304L24.4368 39.9311L24.3304 39.8299C24.272 39.7727 24.1793 39.7155 24.1209 39.7023C23.9698 39.6671 23.4067 39.3942 23.0943 39.2093C22.8058 39.0333 22.72 39.0245 22.7063 39.1609C22.6994 39.2093 22.6651 39.4382 22.6307 39.6671C22.4316 40.8993 22.3869 41.203 22.3698 41.4054C22.3595 41.5243 22.3354 41.7223 22.3183 41.8455C22.3011 41.9644 22.2633 42.2812 22.2324 42.5497C22.1672 43.1042 22.071 43.5883 21.9577 43.936C21.8238 44.3453 21.5663 44.4333 21.1268 44.2177C20.9998 44.1561 20.8212 44.0724 20.7319 44.0284C20.6427 43.9888 20.5534 43.936 20.5293 43.9052C20.4744 43.8348 20.5156 43.716 20.598 43.716C20.6461 43.716 20.6907 43.6588 20.7354 43.5443C20.8349 43.3023 21.0547 42.3341 21.089 41.9996C21.1268 41.5991 21.2126 40.9741 21.3088 40.3272C21.4255 39.5482 21.453 39.3854 21.5285 38.9629C21.6521 38.2851 21.6933 38.3468 20.6289 37.5678C20.5877 37.5414 20.55 37.5018 20.5362 37.4798C20.5259 37.4577 20.4778 37.4181 20.4298 37.3873C20.3165 37.3125 20.2409 37.2553 20.0177 37.0617C19.7911 36.868 19.6675 36.8196 19.6126 36.9076C19.5679 36.978 19.5027 37.4137 19.4169 38.1927C19.386 38.4832 19.331 38.9101 19.2898 39.1389C19.252 39.3678 19.2005 39.6891 19.1765 39.8519C19.0975 40.3448 19.0151 40.49 18.7301 40.6133C18.5344 40.6969 18.27 40.7145 16.2923 40.7453C15.5575 40.7541 14.8501 40.7849 14.7265 40.8069C14.6029 40.8333 14.263 40.8729 13.9711 40.8993C13.6793 40.9257 13.4046 40.9521 13.3565 40.9653C13.1196 41.0182 12.6938 41.0666 12.4672 41.071C12.3264 41.0754 12.1136 41.1062 11.9934 41.1414C11.6294 41.2514 10.953 41.2074 10.953 41.0754C10.953 41.027 11.2861 40.7893 11.4062 40.7497C11.4577 40.7365 11.5539 40.6749 11.6191 40.6177C11.7565 40.4988 12.0208 40.4284 12.4432 40.3932C12.6114 40.38 12.7797 40.3624 12.8209 40.3492C12.8621 40.3404 12.9411 40.3228 12.996 40.314C13.0544 40.3008 13.2089 40.2524 13.3394 40.204C13.693 40.0675 14.2252 39.9399 14.5583 39.9091C14.7197 39.8959 15.0218 39.8651 15.2278 39.8431C15.4373 39.8211 15.8596 39.7815 16.1721 39.7551C17.2159 39.6671 17.6657 39.6186 17.7996 39.5746C18.0194 39.4998 18.0743 39.3898 18.1396 38.8969C18.2357 38.1795 18.3215 37.6074 18.476 36.6876C18.5104 36.4675 18.5413 36.1771 18.5413 36.0494C18.5413 35.781 18.5104 35.7282 18.0949 35.3277C17.9713 35.2088 17.7241 34.9668 17.5455 34.7819C17.0168 34.2494 16.9481 34.1966 16.8828 34.2846ZM19.2108 43.5399C19.1147 43.5927 18.919 43.5927 18.919 43.5399C18.919 43.5135 19.0014 43.4959 19.101 43.5003C19.2314 43.5003 19.2623 43.5135 19.2108 43.5399Z" fill="white"/>
<path d="M0 45.2814C0 45.4271 0.072106 45.6523 0.120177 45.6523C0.144212 45.6523 0.181982 45.6258 0.202583 45.5949C0.230052 45.5464 0.212884 45.4934 0.120177 45.3609C0.0206017 45.2152 0.00343362 45.2019 0 45.2814Z" fill="white"/>
</svg>
